<svg baseProfile="basic" xmlns="http://www.w3.org/2000/svg" viewBox="0 0 40 40"><path fill="#fff" d="M20 20.5c3.4 0 6.2-2.8 6.2-6.3s-2.8-6.3-6.2-6.3c-3.4 0-6.2 2.8-6.2 6.3s2.8 6.3 6.2 6.3zm0-9.5c1.8 0 3.3 1.5 3.3 3.3s-1.5 3.3-3.3 3.3c-1.8 0-3.3-1.5-3.3-3.3s1.5-3.3 3.3-3.3zm6.7 10.2c-.5-.7-1.5-.8-2.2-.3 0 0-1.7 1.3-4.5 1.3s-4.5-1.3-4.5-1.3c-.7-.5-1.7-.4-2.2.3-.5.7-.4 1.7.3 2.2.1.1 1.7 1.3 4.4 1.8l-4.1 4.2c-.6.6-.6 1.6 0 2.2.3.3.7.5 1.1.5.4 0 .8-.2 1.1-.5l3.9-4 3.9 4c.3.3.7.5 1.1.5.4 0 .8-.2 1.1-.5.6-.6.6-1.6 0-2.2l-4.1-4.3c2.7-.5 4.3-1.7 4.4-1.8.7-.5.8-1.5.3-2.1z"/></svg>