<svg width="30" height="34" viewBox="0 0 30 34" fill="none" xmlns="http://www.w3.org/2000/svg">
<path d="M26.6667 3.33333H19.7C19 1.4 17.1667 0 15 0C12.8333 0 11 1.4 10.3 3.33333H3.33333C1.5 3.33333 0 4.83333 0 6.66667V30C0 31.8333 1.5 33.3333 3.33333 33.3333H26.6667C28.5 33.3333 30 31.8333 30 30V6.66667C30 4.83333 28.5 3.33333 26.6667 3.33333ZM15 3.33333C15.9167 3.33333 16.6667 4.08333 16.6667 5C16.6667 5.91667 15.9167 6.66667 15 6.66667C14.0833 6.66667 13.3333 5.91667 13.3333 5C13.3333 4.08333 14.0833 3.33333 15 3.33333ZM18.3333 26.6667H6.66667V23.3333H18.3333V26.6667ZM23.3333 20H6.66667V16.6667H23.3333V20ZM23.3333 13.3333H6.66667V10H23.3333V13.3333Z" fill="black"/>
</svg>
