<svg width="36" height="36" viewBox="0 0 36 36" fill="none" xmlns="http://www.w3.org/2000/svg">
<path d="M9.42546 7.05205L6.48 4.10959L4.17273 6.4274L7.10182 9.36986L9.42546 7.05205ZM4.90909 16.3562H0V19.6438H4.90909V16.3562ZM19.6364 0H16.3636V4.84932H19.6364V0ZM31.8273 6.4274L29.52 4.10959L26.5909 7.05205L28.8982 9.36986L31.8273 6.4274ZM26.5745 28.9479L29.5036 31.9068L31.8109 29.589L28.8655 26.6466L26.5745 28.9479ZM31.0909 16.3562V19.6438H36V16.3562H31.0909ZM18 8.13699C12.5836 8.13699 8.18182 12.5589 8.18182 18C8.18182 23.4411 12.5836 27.863 18 27.863C23.4164 27.863 27.8182 23.4411 27.8182 18C27.8182 12.5589 23.4164 8.13699 18 8.13699ZM16.3636 36H19.6364V31.1507H16.3636V36ZM4.17273 29.5726L6.48 31.8904L9.40909 28.9315L7.10182 26.6137L4.17273 29.5726Z" fill="white"/>
</svg>
